<svg viewBox="0 0 300 300" width="300px" height="300px" xmlns="http://www.w3.org/2000/svg">
  <defs>
    <linearGradient gradientUnits="userSpaceOnUse" x1="148.838" y1="21.929" x2="148.838" y2="294.928" id="gradient-0" gradientTransform="matrix(0.73173, 0.681594, -0.89652, 0.962465, 174.180538, -97.477272)">
      <stop offset="0" style="stop-color: rgb(255, 208, 0);"></stop>
      <stop offset="1" style="stop-color: rgb(254, 110, 0);"></stop>
    </linearGradient>
  </defs>
  <path style="fill: none; stroke: url(#gradient-0); stroke-width: 10px; stroke-linecap: round; stroke-linejoin: round;" d="M 137.006 33.034 L 136.85 21.929 L 173.201 22.002 L 172.846 34.444 L 145.477 34.132 L 145.306 42.267 L 207.913 42.454 L 239.827 80.48 L 241.408 105.061 L 249.684 104.815 L 249.759 104.812 L 163.364 102.683 C 163.364 102.683 135.93 42.835 135.773 42.835 C 135.618 42.835 82.551 43.3 82.551 43.3 C 82.551 43.3 59.551 75.193 59.551 75.663 C 59.551 76.131 60.291 101.767 60.291 101.767 L 44.886 102.336 L 44.435 102.228 L 127.993 103.048 L 140.213 123.322 L 253.76 124.525 L 253.684 124.374 L 243.387 124.071 L 239.923 139.44 L 261.544 139.128 C 261.544 139.128 262.671 139.336 261.735 139.492 C 260.798 139.649 239.975 139.964 239.975 139.964 L 208.855 191.232 L 125.273 189.253 L 57.123 123.143 L 40.496 122.801 L 40.891 123.002 L 56.447 122.722 L 61.984 137.27 C 62.251 137.359 36.174 136.582 35.974 137.281 C 35.774 137.98 35.311 137.384 35.779 137.384 C 36.248 137.384 61.799 137.999 61.799 137.999 L 85.816 189.946 L 195.083 190.398 L 228.379 294.205 L 210.824 294.928 C 210.824 294.928 195.466 245.774 195.311 245.619 C 195.154 245.462 95.674 244.444 95.674 244.444 C 95.674 244.444 107.547 207 107.39 206.844 C 107.233 206.687 93.586 206.69 93.586 206.69 C 93.586 206.69 65.402 292.965 65.246 293.121 C 65.089 293.277 77.588 293.213 77.745 293.058 C 77.9 292.901 90.701 254.567 90.545 254.253"></path>
</svg>