<svg viewBox="0 0 300 300" width="300px" height="300px" xmlns="http://www.w3.org/2000/svg">
  <defs>
    <linearGradient gradientUnits="userSpaceOnUse" x1="152.293" y1="25.252" x2="152.293" y2="295" id="gradient-0" gradientTransform="matrix(-0.70342, -0.710775, 1.064634, -1.053619, 84.361021, 429.625852)">
      <stop offset="0" style="stop-color: rgb(255, 145, 0);"></stop>
      <stop offset="1" style="stop-color: rgb(255, 191, 0);"></stop>
    </linearGradient>
  </defs>
  <path style="fill: none; stroke-linecap: round; stroke-linejoin: round; stroke-width: 10px; stroke: url(#gradient-0);" d="M 43.207 129.146 L 49.784 145.151 L 30.038 151.216 C 30.038 151.216 17.258 120.361 18.062 120.897 C 18.866 121.433 49.644 108.272 49.644 108.272 L 283.895 25.252 L 283.61 40.216 L 256.143 49.961 C 256.143 49.961 255.8 260 256.4 260 C 256.9 260 242.2 260 242.2 260 L 242.575 56.432 L 203.479 73.155 L 203.7 260 L 187.213 259.464 L 187.172 79.225 L 140.725 98.247 L 142.087 260.804 C 142.087 260.804 125.1 260 125.6 260 C 126.2 260 123.689 103.961 123.689 103.961 C 123.689 103.961 86.669 115.852 86.669 116.12 C 86.669 116.388 90 275 90 275 C 90 275 285.5 275 286.3 275 C 287.1 275 285.8 295 285.8 295 L 18.8 295 L 19.9 275 L 73.2 275 C 73.2 275 72.018 119.213 71.482 120.554"></path>
</svg>
