<svg viewBox="0 0 300 300" width="300px" height="300px" xmlns="http://www.w3.org/2000/svg">
  <defs>
    <linearGradient gradientUnits="userSpaceOnUse" x1="124.715" y1="12.654" x2="124.715" y2="261.344" id="gradient-0" gradientTransform="matrix(0.715738, 0.698369, -1.059683, 1.086038, 197.681844, -79.552334)">
      <stop offset="0" style="stop-color: rgb(255, 230, 0);"></stop>
      <stop offset="1" style="stop-color: rgb(255, 128, 0);"></stop>
    </linearGradient>
    <linearGradient gradientUnits="userSpaceOnUse" x1="124.715" y1="12.654" x2="124.715" y2="261.344" id="gradient-1" gradientTransform="matrix(0.727978, 0.685601, -1.012854, 1.075457, 182.970242, -79.17623)">
      <stop offset="0" style="stop-color: rgb(255, 230, 0);"></stop>
      <stop offset="1" style="stop-color: rgb(255, 128, 0);"></stop>
    </linearGradient>
    <linearGradient gradientUnits="userSpaceOnUse" x1="107.887" y1="235.882" x2="107.887" y2="298.327" id="gradient-2" gradientTransform="matrix(0.795462, 0.606002, -2.739808, 3.596378, 811.306681, -839.159483)">
      <stop offset="0" style="stop-color: rgb(255, 230, 0);"></stop>
      <stop offset="1" style="stop-color: rgb(255, 128, 0);"></stop>
    </linearGradient>
  </defs>
  <path style="stroke-linecap: round; stroke: url(#gradient-1); fill: none; stroke-width: 10px; stroke-linejoin: round;" d="M 1.572 261.344 L 94.177 225.518 L 145.986 225.632 C 145.986 225.632 212.717 205.063 213.202 205.063 C 213.687 205.063 219.032 188.373 219.032 188.857 C 219.032 189.341 204.889 175.961 204.889 175.961 L 166.904 182.23 L 212.365 173.121 L 217.011 153.43 C 217.011 153.43 209.867 138.787 209.14 138.787 C 208.413 138.787 160.902 147.389 160.902 147.389 L 202.532 139.924 L 214.836 117.438 L 201.49 106.599 L 158.59 115.231 L 187.139 110.043 C 187.139 110.043 190.74 92.654 190.498 92.412 C 190.256 92.17 177.42 83.248 177.42 83.248 L 99.029 107.625 L 97.655 107.216 L 156.804 90.371 C 156.804 90.371 155.593 76.068 154.865 76.068 C 154.137 76.068 127.987 83.048 127.987 83.048 L 131.367 56.227 L 154.98 36.72 C 154.98 36.72 194.142 35.043 194.385 35.043 C 194.628 35.043 211.279 44.784 211.279 44.784 L 247.556 44.748 L 247.858 13.202 L 212.164 12.654 C 212.164 12.654 193.587 21.654 193.587 22.138 C 193.587 22.622 148.839 25.035 148.839 25.035 L 119.529 50.084 L 114.057 87.752 L 87.245 97.873 C 87.245 97.873 84.222 110.82 83.979 111.062 C 83.736 111.304 72.095 109.765 72.095 109.765 C 72.095 109.765 77.61 88.978 77.852 89.221 C 78.094 89.464 103.696 78.849 103.696 78.849 C 103.696 78.849 106.591 58.287 106.349 58.287 C 106.107 58.287 62.609 71.879 62.609 71.879 L 38.855 105.932 L 25.166 141.01 L 3.976 150.593 L 1.572 261.344 Z"></path>
  <path style="stroke: url(#gradient-2); fill: none; stroke-width: 10px; stroke-linejoin: round;" d="M 103.449 237.023 C 103.449 237.023 117.093 239.349 117.655 238.744 C 118.217 238.139 112.206 270.967 112.206 271.452 C 112.206 271.937 113.418 295.417 113.418 295.417 L 96.722 294.708 L 98.286 269.468 L 103.449 237.023 Z"></path>
</svg>