<svg viewBox="0 0 300 300" width="300px" height="300px" xmlns="http://www.w3.org/2000/svg">
  <defs>
    <linearGradient gradientUnits="userSpaceOnUse" x1="140.419" y1="49.987" x2="140.419" y2="212.928" id="gradient-0" gradientTransform="matrix(0.672794, 0.73983, -1.760779, 1.601236, 283.109554, -151.224675)">
      <stop offset="0" style="stop-color: rgb(255, 81, 0);"></stop>
      <stop offset="1" style="stop-color: rgb(255, 225, 0);"></stop>
    </linearGradient>
  </defs>
  <path style="fill: none; stroke: url(#gradient-0); stroke-linecap: round; stroke-linejoin: round; stroke-width: 10px;" d="M 24.459 173.244 L 24.646 124.859 L 106.439 123.405 L 150.311 50.766 L 257.31 49.987 L 257.758 145.908 C 257.758 145.908 215.863 165.876 216.037 166.051 C 216.211 166.226 196.087 211.948 196.087 211.948 L 103.147 215.489 L 114.976 179.625 L 130.439 132.738 L 246.265 129.502 L 246.152 61.204 L 156.946 61.749 C 156.946 61.749 118.525 127.782 118.351 127.957 C 118.177 128.132 91.801 213.102 91.801 213.102 L 62.719 174.042 C 62.719 174.042 24.794 173.379 24.459 173.244 Z"></path>
  <ellipse style="fill: none; stroke: rgb(255, 149, 0); stroke-linejoin: round; stroke-linecap: round; stroke-width: 10px;" cx="43.352" cy="216.492" rx="38.813" ry="40.396" transform="matrix(1, 0, 0.003078, 1, 6.10979, -6.668597)"></ellipse>
  <ellipse style="fill: none; stroke: rgb(255, 157, 0); stroke-linejoin: round; stroke-linecap: round; stroke-width: 10px;" cx="237.361" cy="199.997" rx="57.094" ry="57.792"></ellipse>
  <path style="fill: rgb(255, 140, 0); stroke-linecap: round; stroke-linejoin: round;" d="M 91.647 122.404 L 91.737 92.469 C 91.737 92.469 101.073 92.147 100.899 91.973 C 100.725 91.799 84.636 75.414 84.636 75.414 L 71.077 92.363 C 71.077 92.363 80.202 91.923 80.376 91.923 C 80.55 91.923 81.006 122.874 81.006 122.874 L 91.647 122.404 Z"></path>
  <path style="fill: rgb(255, 140, 0); stroke-linecap: round; stroke-linejoin: round;" d="M 44.372 122.896 L 43.465 101.755 C 43.465 101.755 29.188 89.742 29.188 89.916 C 29.188 90.09 33.493 80.756 33.493 80.756 L 51.252 95.555 L 52.879 122.727 L 44.372 122.896 Z"></path>
</svg>